. 
  
http://www.torrenting.com/        :     Greatest Movie Tracker on The Net!!!
 
http://www.Torrenting.com          :     Once & For all ;)


               www . Torrenting . Com 

(((((((((((((= Enjoy No RAR releases =))))))))))))))))))))


...................................NFO:....................................

.[img]http://img687.imageshack.us/img687/9504/disfk.jpg[/img]

[color=blue][size=5][b]Disneys Sharpays Fabulous Adventure 2011 BDRip XVID AC3 HQ Hive-CM8[/b][/size][/color]



[b]Thx Hive

CM8 Doing It Right The First Time :D

Why download a touched up rip of a rip BRrip
Get the real deal BDRip


Enjoy

Source Bluray

Video: 720x400 @bitrate 1900 2pass
Audio: English DTS to AC3 5.1 @448
Sample: yes included
Subs: yes english in srt /subs[/b]


[url]http://www.imdb.com/title/tt1629440/[/url]


General
Complete name                    : Disneys.Sharpays.Fabulous.Adventure.2011.BDRip.XVID.AC3.HQ.Hive-CM8.avi
Format                           : AVI
Format/Info                      : Audio Video Interleave
File size                        : 1.47 GiB
Duration                         : 1h 29mn
Overall bit rate                 : 2 356 Kbps
Writing application              : Nandub v1.0rc2
Writing library                  : Nandub build 1853/release

Video
ID                               : 0
Format                           : MPEG-4 Visual
Format profile                   : Advanced Simple@L5
Format settings, BVOP            : Yes
Format settings, QPel            : Yes
Format settings, GMC             : No warppoints
Format settings, Matrix          : Default (H.263)
Muxing mode                      : Packed bitstream
Codec ID                         : XVID
Codec ID/Hint                    : XviD
Duration                         : 1h 29mn
Bit rate                         : 1 899 Kbps
Width                            : 720 pixels
Height                           : 400 pixels
Display aspect ratio             : 16:9
Frame rate                       : 23.976 fps
Color space                      : YUV
Chroma subsampling               : 4:2:0
Bit depth                        : 8 bits
Scan type                        : Progressive
Bits/(Pixel*Frame)               : 0.275
Stream size                      : 1.19 GiB (81%)
Writing library                  : XviD 1.2.1 (UTC 2008-12-04)

Audio
ID                               : 1
Format                           : AC-3
Format/Info                      : Audio Coding 3
Mode extension                   : CM (complete main)
Codec ID                         : 2000
Duration                         : 1h 29mn
Bit rate mode                    : Constant
Bit rate                         : 448 Kbps
Channel(s)                       : 6 channels
Channel positions                : Front: L C R, Side: L R, LFE
Sampling rate                    : 48.0 KHz
Bit depth                        : 16 bits
Stream size                      : 287 MiB (19%)
Alignment                        : Split accross interleaves
Interleave, duration             : 42 ms (1.00 video frame)
Interleave, preload duration     : 500 ms



Ashley Tisdale	 ... 	Sharpay Evans
Austin Butler	... 	Peyton Leverett (as Austin Robert Butler)
Bradley Steven Perry	... 	Roger Elliston
Jessica Tuck	... 	Mrs. Evans
Lauren Collins	... 	Tiffani
Cameron Goodman	... 	Lisa Lamore
Jamie Harris  ...  Popeye   



Sharpay Evans travels to New York where she is pursuing a 
Broadway career but it's her dog who lands an acting gig first. 



[img]http://img16.imageshack.us/img16/8995/33964989.png[/img]
[img]http://img233.imageshack.us/img233/8194/sshh.png[/img]
[img]http://img638.imageshack.us/img638/5922/sshshh.png[/img]
[img]http://img121.imageshack.us/img121/5941/sshsshhh.png[/img]
[img]http://img689.imageshack.us/img689/6210/sshsshsshhhh.png[/img]
[img]http://img862.imageshack.us/img862/2299/sshsshsshshhhh.png[/img]
[img]http://img196.imageshack.us/img196/6989/sshsshsshshhshhh.png[/img]
[img]http://img163.imageshack.us/img163/6679/sshsshsshshhsshhhh.png[/img]
[img]http://img851.imageshack.us/img851/2971/sshsshsshshhssshhhhh.png[/img]
[img]http://img855.imageshack.us/img855/9663/sshssshhhh.png[/img]





ViSiON,LUSi,SANTi,MAGNET,THC,T0XiCiNK,LKRG,IMAGiNE,WBZ,FLAWL3SS,NOVA
Vik,Rapeseed,D2U,SAFC,goldadvance,MEMORY100,KaN1vE,Unevano,Pinnz,Wayne,Mr Hive
and all P2P groups 
Great Work Guys :D

CM8@hushmail.com